REM DIRINDEX 1\2,1\3,1\4,1\5
REM DIRNAME folder01,folder02,folder03,folder04,folder05
TITLE ""
FILE "1Q_t_2081-2090.mp3" MP3
  TRACK 01 AUDIO
    TITLE "3:cjc004_7151"
    INDEX 01 00:00:00
  TRACK 02 AUDIO
    TITLE "0:"
    INDEX 01 00:00:74
  TRACK 03 AUDIO
    TITLE "4:cjc004_7152"
    INDEX 01 00:01:22
  TRACK 04 AUDIO
    TITLE "0:"
    INDEX 01 00:02:59
  TRACK 05 AUDIO
    TITLE "5:cjc004_7153"
    INDEX 01 00:03:14
  TRACK 06 AUDIO
    TITLE "0:"
    INDEX 01 00:07:54
  TRACK 07 AUDIO
    TITLE "3:cjc004_7154"
    INDEX 01 00:08:34
  TRACK 08 AUDIO
    TITLE "0:"
    INDEX 01 00:09:42
  TRACK 09 AUDIO
    TITLE "4:cjc004_7155"
    INDEX 01 00:09:69
  TRACK 10 AUDIO
    TITLE "0:"
    INDEX 01 00:10:74
  TRACK 11 AUDIO
    TITLE "5:cjc004_7156"
    INDEX 01 00:11:21
  TRACK 12 AUDIO
    TITLE "0:"
    INDEX 01 00:16:28
  TRACK 13 AUDIO
    TITLE "3:cjc004_7157"
    INDEX 01 00:17:14
  TRACK 14 AUDIO
    TITLE "0:"
    INDEX 01 00:18:23
  TRACK 15 AUDIO
    TITLE "4:cjc004_7158"
    INDEX 01 00:18:60
  TRACK 16 AUDIO
    TITLE "0:"
    INDEX 01 00:20:16
  TRACK 17 AUDIO
    TITLE "5:cjc004_7159"
    INDEX 01 00:20:39
  TRACK 18 AUDIO
    TITLE "0:"
    INDEX 01 00:25:64
  TRACK 19 AUDIO
    TITLE "3:cjc004_7160"
    INDEX 01 00:26:38
  TRACK 20 AUDIO
    TITLE "0:"
    INDEX 01 00:27:43
  TRACK 21 AUDIO
    TITLE "4:cjc004_7161"
    INDEX 01 00:27:67
  TRACK 22 AUDIO
    TITLE "0:"
    INDEX 01 00:29:09
  TRACK 23 AUDIO
    TITLE "5:cjc004_7162"
    INDEX 01 00:29:33
  TRACK 24 AUDIO
    TITLE "0:"
    INDEX 01 00:32:56
  TRACK 25 AUDIO
    TITLE "3:cjc004_7163"
    INDEX 01 00:33:28
  TRACK 26 AUDIO
    TITLE "0:"
    INDEX 01 00:34:36
  TRACK 27 AUDIO
    TITLE "4:cjc004_7164"
    INDEX 01 00:34:67
  TRACK 28 AUDIO
    TITLE "0:"
    INDEX 01 00:37:01
  TRACK 29 AUDIO
    TITLE "5:cjc004_7165"
    INDEX 01 00:37:30
  TRACK 30 AUDIO
    TITLE "0:"
    INDEX 01 00:41:24
  TRACK 31 AUDIO
    TITLE "3:cjc004_7166"
    INDEX 01 00:42:04
  TRACK 32 AUDIO
    TITLE "0:"
    INDEX 01 00:43:17
  TRACK 33 AUDIO
    TITLE "4:cjc004_7167"
    INDEX 01 00:43:48
  TRACK 34 AUDIO
    TITLE "0:"
    INDEX 01 00:44:60
  TRACK 35 AUDIO
    TITLE "5:cjc004_7168"
    INDEX 01 00:45:12
  TRACK 36 AUDIO
    TITLE "0:"
    INDEX 01 00:49:37
  TRACK 37 AUDIO
    TITLE "3:cjc004_7169"
    INDEX 01 00:50:17
  TRACK 38 AUDIO
    TITLE "0:"
    INDEX 01 00:51:32
  TRACK 39 AUDIO
    TITLE "4:cjc004_7170"
    INDEX 01 00:51:60
  TRACK 40 AUDIO
    TITLE "0:"
    INDEX 01 00:53:09
  TRACK 41 AUDIO
    TITLE "5:cjc004_7171"
    INDEX 01 00:53:31
  TRACK 42 AUDIO
    TITLE "0:"
    INDEX 01 00:56:72
  TRACK 43 AUDIO
    TITLE "3:cjc004_7172"
    INDEX 01 00:57:54
  TRACK 44 AUDIO
    TITLE "0:"
    INDEX 01 00:59:08
  TRACK 45 AUDIO
    TITLE "4:cjc004_7173"
    INDEX 01 00:59:30
  TRACK 46 AUDIO
    TITLE "0:"
    INDEX 01 01:00:35
  TRACK 47 AUDIO
    TITLE "5:cjc004_7174"
    INDEX 01 01:00:57
  TRACK 48 AUDIO
    TITLE "0:"
    INDEX 01 01:04:27
  TRACK 49 AUDIO
    TITLE "3:cjc004_7175"
    INDEX 01 01:05:03
  TRACK 50 AUDIO
    TITLE "0:"
    INDEX 01 01:05:73
  TRACK 51 AUDIO
    TITLE "4:cjc004_7176"
    INDEX 01 01:06:20
  TRACK 52 AUDIO
    TITLE "0:"
    INDEX 01 01:07:41
  TRACK 53 AUDIO
    TITLE "5:cjc004_7177"
    INDEX 01 01:07:63
  TRACK 54 AUDIO
    TITLE "0:"
    INDEX 01 01:12:36
  TRACK 55 AUDIO
    TITLE "3:cjc004_7178"
    INDEX 01 01:13:12
  TRACK 56 AUDIO
    TITLE "0:"
    INDEX 01 01:14:27
  TRACK 57 AUDIO
    TITLE "4:cjc004_7179"
    INDEX 01 01:14:51
  TRACK 58 AUDIO
    TITLE "0:"
    INDEX 01 01:15:64
  TRACK 59 AUDIO
    TITLE "5:cjc004_7180"
    INDEX 01 01:16:09
  TRACK 60 AUDIO
    TITLE "0:"
    INDEX 01 01:21:23
